<?xml version="1.0" standalone="no"?>
<!DOCTYPE svg PUBLIC "-//W3C//DTD SVG 20010904//EN"
 "http://www.w3.org/TR/2001/REC-SVG-20010904/DTD/svg10.dtd">
<svg version="1.0" xmlns="http://www.w3.org/2000/svg"
 width="2560.000000pt" height="914.000000pt" viewBox="0 0 2560.000000 914.000000"
 preserveAspectRatio="xMidYMid meet">
<metadata>
Created by potrace 1.16, written by Peter Selinger 2001-2019
</metadata>
<g transform="translate(0.000000,914.000000) scale(0.100000,-0.100000)"
fill="#000000" stroke="none">
<path d="M1988 7656 c-201 -78 -457 -260 -644 -459 -274 -293 -473 -649 -570
-1022 -30 -118 -37 -162 -41 -280 -6 -166 5 -253 51 -388 47 -136 113 -243
221 -352 122 -125 240 -202 364 -239 123 -36 176 -14 176 73 0 40 -9 62 -57
142 -101 166 -137 263 -163 436 -79 521 141 1216 499 1585 41 42 84 82 95 88
19 9 23 7 32 -17 13 -34 -7 -3694 -21 -3893 -17 -237 -44 -380 -116 -619 -50
-165 -45 -224 19 -236 87 -16 263 80 402 220 217 219 334 517 376 965 8 77 13
720 16 1932 5 1798 4 1817 -15 1862 -31 68 -140 139 -287 186 -90 28 -281 37
-337 16z"/>
<path d="M8631 7653 c-56 -29 -69 -68 -81 -243 -6 -85 -14 -275 -18 -422 -4
-146 -10 -270 -15 -274 -4 -4 -151 -2 -326 5 -250 10 -323 10 -338 0 -101 -63
-165 -425 -83 -469 15 -8 490 -29 672 -30 l47 0 -5 -747 c-5 -706 -7 -753 -26
-833 -62 -263 -232 -565 -420 -747 l-44 -43 4 134 c4 111 1 146 -17 217 -42
167 -151 336 -303 472 -74 65 -359 285 -565 436 -62 46 -113 85 -113 87 0 3
26 39 59 82 97 128 192 299 236 427 24 67 31 212 14 272 -18 65 -81 127 -150
147 -343 102 -721 -137 -819 -519 -23 -92 -26 -226 -6 -300 18 -67 66 -160
114 -222 l40 -50 -42 -79 c-167 -311 -227 -420 -364 -654 -188 -322 -296 -484
-382 -571 -109 -111 -168 -113 -208 -7 -37 99 -46 221 -45 623 0 209 8 550 17
759 9 208 16 431 16 496 0 110 -2 120 -31 178 -36 73 -81 114 -205 188 -187
112 -309 143 -447 114 -125 -26 -273 -126 -390 -265 -182 -216 -316 -487 -522
-1055 l-85 -235 2 696 c2 779 6 729 -70 768 -114 57 -283 101 -392 101 -58 0
-73 -4 -97 -24 l-28 -24 -8 -634 c-4 -348 -6 -952 -4 -1343 3 -701 3 -711 25
-784 41 -134 88 -196 172 -226 62 -22 250 -31 323 -16 94 20 105 35 123 176
50 391 216 996 388 1415 144 350 347 695 512 869 80 85 96 81 89 -21 -5 -65
-34 -788 -50 -1238 -7 -189 8 -500 31 -657 33 -224 95 -375 188 -460 120 -110
288 -121 471 -33 105 51 189 116 306 237 162 167 265 318 620 910 l331 553
162 -149 c272 -251 361 -354 425 -492 97 -208 78 -442 -47 -567 -80 -80 -182
-101 -302 -62 -65 21 -109 47 -293 173 -118 81 -175 77 -269 -16 -98 -97 -179
-272 -163 -354 17 -90 175 -189 385 -242 385 -97 758 -72 1045 71 314 157 582
464 777 888 26 58 48 98 48 90 0 -45 42 -290 65 -380 60 -237 145 -401 274
-530 102 -101 190 -150 320 -176 213 -42 375 18 557 208 125 131 254 338 319
512 l19 48 21 -73 c135 -462 453 -729 840 -706 319 19 604 209 798 531 l34 57
17 -73 c47 -196 176 -362 346 -445 122 -60 232 -80 352 -64 230 30 388 153
530 409 l35 63 48 -83 c62 -107 202 -249 298 -303 346 -191 809 -76 1084 271
l68 85 6 -68 c4 -37 7 -97 8 -133 l1 -65 -313 -287 c-576 -529 -785 -762 -898
-1002 -64 -138 -83 -222 -84 -371 0 -152 11 -207 67 -325 34 -70 55 -100 127
-170 269 -266 729 -318 1074 -121 145 84 293 228 378 372 107 179 188 480 231
859 9 84 12 255 10 642 l-3 527 74 88 c184 218 410 541 565 807 185 316 411
800 496 1062 l17 52 192 7 c106 4 212 5 237 3 43 -3 45 -4 44 -33 -1 -16 -17
-109 -37 -205 -113 -548 -121 -1072 -21 -1419 87 -301 268 -518 514 -618 182
-73 336 -68 502 19 108 56 224 169 298 291 l53 87 40 -67 c24 -40 79 -107 136
-163 78 -77 112 -104 181 -138 126 -63 191 -77 345 -76 111 1 143 5 220 28
247 74 469 256 605 494 19 34 37 62 40 62 3 0 14 -31 23 -69 92 -355 430 -578
770 -506 172 36 322 175 426 394 l28 60 7 -120 c12 -222 23 -247 126 -293 115
-52 287 -69 443 -45 159 25 156 18 173 463 21 542 44 711 148 1071 70 244 119
374 210 560 75 152 110 201 125 176 4 -7 11 -103 15 -214 23 -679 95 -1318
175 -1549 36 -106 114 -198 204 -244 97 -50 276 -54 373 -8 63 30 68 48 76
243 16 434 128 978 292 1421 54 144 158 390 165 390 3 0 6 -235 6 -522 0 -609
14 -812 74 -1087 83 -377 298 -631 588 -695 276 -61 503 58 644 337 80 161
136 373 146 559 9 161 -23 228 -107 228 -72 0 -100 -45 -145 -230 -55 -230
-103 -353 -166 -425 -101 -115 -234 -84 -318 75 -66 123 -102 277 -122 520
-15 193 -15 874 1 1285 15 397 16 393 -73 480 -70 69 -175 125 -327 176 -198
66 -322 44 -395 -71 -61 -96 -247 -613 -340 -946 -56 -200 -119 -484 -131
-594 -10 -94 -19 -55 -38 175 -22 270 -36 556 -36 755 -1 265 -13 397 -44 463
-65 137 -260 243 -468 254 -154 9 -194 -20 -287 -204 -64 -128 -95 -209 -237
-628 l-133 -390 0 512 c-1 562 -2 571 -60 613 -32 22 -230 74 -354 91 -74 11
-94 11 -130 -1 -81 -28 -75 35 -88 -1016 -12 -1028 -7 -963 -80 -1171 -96
-274 -234 -457 -355 -471 -122 -13 -213 82 -255 266 -49 216 -60 753 -35 1592
9 289 16 540 16 557 0 91 -160 175 -385 202 -185 22 -255 -23 -255 -163 l0
-69 -28 39 c-16 21 -64 72 -106 112 -195 181 -462 237 -720 151 -215 -71 -423
-290 -569 -599 -125 -262 -183 -519 -207 -914 -13 -211 -2 -456 30 -640 l19
-110 -26 -80 c-48 -155 -130 -278 -213 -321 -18 -9 -56 -19 -85 -22 -162 -17
-285 166 -341 502 -25 151 -25 534 0 720 20 148 70 408 122 629 60 254 57 366
-11 462 -41 58 -89 90 -162 109 -99 26 -166 21 -408 -29 -140 -29 -426 -78
-430 -74 -2 2 1 28 7 58 16 87 6 227 -20 276 -29 56 -91 107 -153 127 -94 31
-242 17 -337 -32 -101 -52 -197 -195 -228 -341 -36 -172 7 -324 122 -429 l56
-52 -17 -67 c-82 -329 -282 -793 -487 -1132 -104 -172 -195 -310 -205 -310 -7
0 4 1647 13 1876 l7 160 -32 37 c-75 85 -393 158 -513 118 -20 -7 -51 -28 -68
-47 -27 -31 -30 -41 -30 -100 l0 -65 -81 85 c-131 139 -245 203 -410 232 -198
34 -398 -12 -559 -131 -265 -194 -486 -648 -555 -1140 -28 -197 -39 -479 -27
-667 6 -95 17 -199 22 -231 10 -49 8 -68 -10 -135 -34 -127 -103 -255 -173
-328 -70 -70 -118 -91 -189 -80 -148 22 -222 181 -259 556 -16 162 -14 831 5
1420 16 500 17 488 -54 539 -112 81 -418 133 -501 85 -52 -31 -71 -64 -76
-137 l-6 -65 -38 48 c-80 101 -218 201 -332 240 -297 100 -625 -3 -833 -261
-272 -337 -387 -702 -428 -1351 -16 -247 -31 -316 -104 -484 -127 -293 -315
-497 -458 -499 -48 0 -57 3 -93 39 -77 75 -129 231 -157 469 -25 212 -13 1055
27 1932 6 132 12 242 14 244 3 2 189 7 414 10 l409 6 25 23 c62 59 111 248 85
327 -8 24 -23 44 -38 52 -31 14 -205 30 -500 43 -124 6 -262 13 -308 17 l-82
6 5 106 c13 255 25 556 25 624 0 66 -3 77 -25 100 -54 53 -345 144 -495 153
-60 4 -82 2 -109 -13z m2705 -2037 c131 -60 222 -221 270 -473 22 -120 30
-510 14 -685 -47 -514 -204 -870 -436 -984 -68 -34 -79 -36 -139 -32 -114 10
-198 82 -270 233 -122 252 -157 733 -89 1205 62 435 218 704 441 760 56 14
149 3 209 -24z m2864 12 c143 -45 233 -200 277 -480 24 -154 24 -587 -1 -768
-56 -415 -178 -722 -338 -853 -190 -156 -378 -103 -493 138 -82 173 -115 349
-122 655 -17 728 186 1253 511 1320 46 9 113 5 166 -12z m4964 7 c179 -47 282
-221 332 -563 22 -148 22 -532 0 -706 -29 -228 -94 -463 -169 -612 -124 -245
-324 -367 -481 -293 -101 47 -199 196 -245 373 -44 169 -56 286 -56 571 0 493
61 803 203 1034 34 56 123 141 174 167 88 45 152 52 242 29z m-4597 -3192
c-11 -547 -65 -885 -175 -1098 -70 -135 -192 -222 -326 -232 -268 -22 -410
210 -321 522 63 221 220 469 479 759 96 107 336 356 344 356 3 0 2 -138 -1
-307z"/>
</g>
</svg>
