<svg id="svg" version="1.1"
    xmlns="http://www.w3.org/2000/svg"
    xmlns:xlink="http://www.w3.org/1999/xlink" viewBox="0, 0, 400, 200">
    <g id="svgg">
        <path id="path0" d="M126.923 64.627 C 125.795 65.129,125.422 72.928,125.354 97.436 C 125.262 130.248,124.367 137.870,120.604 137.870 C 119.290 137.870,118.929 135.547,118.906 126.953 C 118.887 119.951,118.356 115.516,117.426 114.586 C 116.629 113.789,115.976 111.362,115.976 109.193 C 115.976 101.610,113.403 97.882,106.069 94.842 C 93.869 89.786,87.474 93.648,83.324 108.580 C 81.207 116.199,80.509 116.747,74.852 115.230 C 68.589 113.552,72.681 89.299,79.952 85.009 C 84.690 82.214,84.599 82.503,82.035 78.361 C 78.571 72.762,78.458 72.741,55.507 73.517 C 25.146 74.543,20.087 76.464,20.144 86.950 C 20.215 99.975,34.677 115.869,39.040 107.717 C 41.032 103.996,39.252 99.899,33.016 93.850 C 22.648 83.792,25.511 81.785,47.060 84.005 C 63.665 85.716,62.816 85.299,60.942 90.815 C 60.111 93.263,59.051 99.660,58.586 105.030 L 57.742 114.793 52.462 114.793 C 44.813 114.793,40.296 117.530,40.255 122.189 C 40.240 123.922,41.350 124.263,47.041 124.278 C 56.078 124.303,57.260 125.166,56.271 131.018 C 53.735 146.030,41.212 147.949,37.248 133.934 C 34.644 124.726,26.036 124.610,26.036 133.782 C 26.036 146.486,46.369 154.713,61.164 147.996 C 66.901 145.392,69.350 141.408,70.488 132.831 C 71.870 122.412,80.994 121.754,81.425 132.043 C 82.139 149.125,95.392 157.216,104.810 146.321 L 108.693 141.829 111.151 144.287 C 114.281 147.417,120.707 147.971,123.865 145.384 C 124.812 144.608,125.475 144.979,125.978 146.566 C 126.833 149.257,131.263 150.663,135.522 149.594 C 138.431 148.863,138.482 148.667,137.709 141.128 C 136.768 131.938,138.509 131.413,142.829 139.583 C 147.590 148.586,153.929 150.560,159.854 144.884 L 163.033 141.838 165.996 144.801 C 172.341 151.147,184.596 151.290,190.423 145.087 L 193.118 142.219 196.263 145.729 C 200.525 150.486,208.515 152.346,212.870 149.595 C 214.838 148.351,213.944 149.747,210.432 153.402 C 191.619 172.978,193.218 196.091,213.435 196.811 C 225.286 197.232,228.402 190.919,228.402 166.495 C 228.402 153.879,228.533 153.166,231.058 152.056 C 234.901 150.366,235.093 147.047,231.445 145.385 C 228.057 143.841,226.909 128.343,229.649 121.136 C 230.717 118.325,230.529 117.581,228.330 115.922 C 226.280 114.375,225.924 113.260,226.559 110.370 C 227.227 107.330,224.871 98.225,223.416 98.225 C 223.211 98.225,220.130 97.160,216.568 95.858 C 201.425 90.323,195.600 95.746,192.914 117.880 C 190.926 134.260,187.527 140.828,181.037 140.828 C 175.317 140.828,171.172 132.496,176.346 131.399 C 188.618 128.798,194.859 108.200,185.846 100.043 C 175.702 90.862,162.818 102.721,159.797 124.020 C 157.892 137.453,153.928 143.325,151.987 135.590 C 151.591 134.011,150.289 131.834,149.093 130.752 C 147.000 128.858,147.065 128.596,150.866 123.616 C 163.276 107.359,155.248 83.769,141.717 96.732 L 138.334 99.973 139.132 88.744 C 139.571 82.568,140.328 75.259,140.815 72.501 C 141.981 65.897,134.098 61.429,126.923 64.627 M274.998 93.474 C 269.122 95.847,264.742 106.914,263.317 122.987 C 262.441 132.862,259.740 140.828,257.268 140.828 C 254.660 140.828,254.766 124.407,257.439 114.396 C 259.354 107.226,257.269 104.157,250.461 104.124 C 245.655 104.100,244.121 103.044,243.610 99.408 C 243.128 95.972,238.511 94.790,235.325 97.287 C 232.763 99.295,231.363 135.615,233.811 136.554 C 236.635 137.638,239.217 132.708,240.913 122.990 C 243.201 109.882,243.786 109.920,243.794 123.176 C 243.807 145.040,252.209 156.171,262.209 147.570 L 265.632 144.625 269.001 147.461 C 272.152 150.112,275.385 150.924,281.065 150.490 C 282.367 150.391,285.122 148.402,287.187 146.069 L 290.941 141.829 293.400 144.287 C 296.782 147.669,303.256 147.983,306.422 144.918 C 307.864 143.523,308.297 143.659,309.393 145.857 C 313.012 153.116,324.252 150.458,324.278 142.337 C 324.288 139.229,324.813 135.888,325.444 134.911 C 326.297 133.591,326.596 134.273,326.609 137.574 C 326.631 142.937,329.969 146.753,334.615 146.727 C 339.399 146.701,340.225 145.699,341.921 137.870 C 343.772 129.319,345.473 125.729,345.526 130.259 C 345.718 146.502,357.911 154.987,366.691 144.987 C 372.332 138.561,375.819 124.898,372.174 123.499 C 369.440 122.450,367.133 125.080,366.261 130.242 C 365.351 135.629,361.970 140.417,359.955 139.172 C 358.102 138.026,358.161 121.128,360.042 114.093 C 361.868 107.268,357.723 102.647,350.298 103.227 C 346.336 103.536,346.006 103.928,342.606 112.341 L 339.053 121.132 338.462 115.337 C 337.462 105.552,327.976 103.171,323.394 111.556 L 321.302 115.385 320.710 107.731 C 320.137 100.322,319.997 100.042,316.339 98.999 C 309.687 97.101,309.323 97.792,308.459 113.945 C 307.168 138.104,301.212 148.708,301.154 126.953 C 301.135 119.951,300.605 115.516,299.675 114.586 C 298.877 113.789,298.225 111.458,298.225 109.407 C 298.225 97.967,285.496 89.235,274.998 93.474 M146.995 106.213 C 148.291 112.565,143.394 124.260,139.439 124.260 C 137.468 124.260,138.564 116.398,141.377 110.355 C 144.348 103.973,146.251 102.570,146.995 106.213 M215.496 107.393 C 216.176 109.182,216.397 111.977,215.987 113.606 C 215.577 115.235,214.752 119.976,214.154 124.141 C 211.952 139.480,205.002 146.010,203.320 134.320 C 200.811 116.879,210.748 94.904,215.496 107.393 M105.099 109.172 C 105.663 111.287,105.713 114.083,105.210 115.385 C 104.707 116.686,103.714 121.993,103.004 127.178 C 100.027 148.923,90.837 145.864,92.902 123.814 C 94.385 107.980,102.262 98.524,105.099 109.172 M287.348 109.172 C 287.912 111.287,287.961 114.083,287.458 115.385 C 286.955 116.686,285.963 121.993,285.253 127.178 C 282.276 148.923,273.085 145.864,275.150 123.814 C 276.633 107.980,284.510 98.524,287.348 109.172 M180.767 113.066 C 180.190 118.185,177.283 123.077,174.817 123.077 C 173.434 123.077,174.399 117.693,176.821 111.897 C 179.368 105.800,181.515 106.436,180.767 113.066 M214.822 179.501 C 213.752 185.279,210.238 189.095,207.828 187.095 C 204.058 183.966,206.653 169.981,212.639 161.161 L 214.793 157.988 215.156 166.864 C 215.355 171.746,215.205 177.432,214.822 179.501 " stroke="none" fill="#000000" fill-rule="evenodd"></path>
    </g>
</svg>